<svg width="25" height="24" viewBox="0 0 25 24" fill="none" xmlns="http://www.w3.org/2000/svg">
<path fill-rule="evenodd" clip-rule="evenodd" d="M22.5 12C22.5 17.5228 18.0228 22 12.5 22C6.97715 22 2.5 17.5228 2.5 12C2.5 6.47715 6.97715 2 12.5 2C18.0228 2 22.5 6.47715 22.5 12ZM11.5 17C11.5 16.4477 11.9477 16 12.5 16C13.0523 16 13.5 16.4477 13.5 17C13.5 17.5523 13.0523 18 12.5 18C11.9477 18 11.5 17.5523 11.5 17ZM11.75 14C11.75 14.4142 12.0858 14.75 12.5 14.75C12.9142 14.75 13.25 14.4142 13.25 14L13.25 7C13.25 6.58579 12.9142 6.25 12.5 6.25C12.0858 6.25 11.75 6.58579 11.75 7L11.75 14Z" fill="white"/>
</svg>
