<svg width="30" height="30" viewBox="0 0 30 30" fill="none" xmlns="http://www.w3.org/2000/svg">
<rect width="30" height="30" rx="6" fill="#5458EA"/>
<path fill-rule="evenodd" clip-rule="evenodd" d="M12.4063 5.8906C12.7772 5.3342 13.4017 5 14.0704 5H15.9296C16.5983 5 17.2228 5.3342 17.5937 5.8906L18.5 7.25H22.25C22.6642 7.25 23 7.58579 23 8C23 8.41421 22.6642 8.75 22.25 8.75H7.75C7.33579 8.75 7 8.41421 7 8C7 7.58579 7.33579 7.25 7.75 7.25H11.5L12.4063 5.8906ZM18 25H12C9.79086 25 8 23.2091 8 21V10H22V21C22 23.2091 20.2091 25 18 25ZM13 13.25C13.4142 13.25 13.75 13.5858 13.75 14V21C13.75 21.4142 13.4142 21.75 13 21.75C12.5858 21.75 12.25 21.4142 12.25 21L12.25 14C12.25 13.5858 12.5858 13.25 13 13.25ZM17 13.25C17.4142 13.25 17.75 13.5858 17.75 14V21C17.75 21.4142 17.4142 21.75 17 21.75C16.5858 21.75 16.25 21.4142 16.25 21V14C16.25 13.5858 16.5858 13.25 17 13.25Z" fill="white"/>
</svg>
