<svg width="30" height="30" viewBox="0 0 30 30" fill="none" xmlns="http://www.w3.org/2000/svg">
<rect width="30" height="30" rx="6" fill="#5458EA"/>
<path fill-rule="evenodd" clip-rule="evenodd" d="M18.419 6.67708C19.3218 5.77431 20.7855 5.77431 21.6883 6.67708L23.3229 8.31171C24.2257 9.21449 24.2257 10.6782 23.3229 11.581L21.8736 13.0303C21.7598 12.9739 21.6401 12.913 21.516 12.8477C20.6806 12.4079 19.6892 11.7906 18.9493 11.0507C18.2095 10.3108 17.5922 9.31945 17.1524 8.48403C17.087 8.35989 17.0261 8.24018 16.9697 8.12639L18.419 6.67708ZM17.8887 12.1114C18.7642 12.9869 19.8777 13.6759 20.7595 14.1444L15.06 19.8438C14.7064 20.1975 14.2475 20.4269 13.7523 20.4977L10.3196 20.9881C9.5568 21.097 8.90295 20.4432 9.01193 19.6804L9.50231 16.2477C9.57305 15.7525 9.80248 15.2936 10.1562 14.94L15.8556 9.24053C16.3241 10.1223 17.0131 11.2358 17.8887 12.1114ZM6.75 22.5C6.33579 22.5 6 22.8358 6 23.25C6 23.6642 6.33579 24 6.75 24H23.25C23.6642 24 24 23.6642 24 23.25C24 22.8358 23.6642 22.5 23.25 22.5H6.75Z" fill="white"/>
</svg>
