<svg width="30" height="30" viewBox="0 0 30 30" fill="none" xmlns="http://www.w3.org/2000/svg">
<rect width="30" height="30" rx="6" fill="#5458EA"/>
<path d="M25 11.71C25 13.13 24.45 14.46 23.45 15.46L15.6 23.31C15.56 23.35 15.45 23.44 15.4 23.47C15.28 23.55 15.14 23.59 15 23.59C14.86 23.59 14.71 23.55 14.59 23.47C14.53 23.43 14.48 23.39 14.42 23.33L6.56 15.46C5.55 14.46 5 13.13 5 11.71C5 10.29 5.55 8.96004 6.56 7.96004C8.63 5.90004 11.99 5.90004 14.06 7.96004L15 8.91004L15.95 7.96004C18.02 5.90004 21.38 5.90004 23.44 7.96004C24.45 8.96004 25 10.29 25 11.71Z" fill="white"/>
</svg>
