<svg width="131" height="130" viewBox="0 0 131 130" fill="none" xmlns="http://www.w3.org/2000/svg">
<path fill-rule="evenodd" clip-rule="evenodd" d="M35.5707 14.7143C44.7137 8.61895 56.7234 14.207 58.5046 24.4703H76.3334C84.5602 24.4703 91.2292 31.1394 91.2292 39.3661C91.2292 41.6098 89.4104 43.4286 87.1667 43.4286C84.9231 43.4286 83.1042 41.6098 83.1042 39.3661C83.1042 35.6267 80.0728 32.5953 76.3334 32.5953H58.7292V100.304H76.3334C80.0728 100.304 83.1042 97.2722 83.1042 93.5328C83.1042 91.2891 84.9231 89.4703 87.1667 89.4703C89.4104 89.4703 91.2292 91.2891 91.2292 93.5328C91.2292 101.76 84.5602 108.429 76.3334 108.429H58.5046C56.7234 118.692 44.7137 124.28 35.5707 118.185L24.7374 110.962C20.5934 108.2 18.1042 103.549 18.1042 98.5683V34.3306C18.1042 29.3501 20.5934 24.6992 24.7374 21.9365L35.5707 14.7143ZM95.1275 78.7053C93.541 77.1188 93.541 74.5466 95.1275 72.9601L99.0257 69.0619L70.9167 69.0618C68.6731 69.0618 66.8542 67.243 66.8542 64.9993C66.8542 62.7557 68.6731 60.9368 70.9167 60.9368L99.0257 60.9369L95.1275 57.0386C93.541 55.4521 93.541 52.8799 95.1275 51.2934C96.714 49.7069 99.2862 49.7069 100.873 51.2934L107.876 58.2966C111.578 61.9984 111.578 68.0003 107.876 71.7021L100.873 78.7053C99.2862 80.2918 96.714 80.2918 95.1275 78.7053Z" fill="url(#paint0_linear_193_19988)"/>
<defs>
<linearGradient id="paint0_linear_193_19988" x1="64.3783" y1="12.1875" x2="64.3783" y2="120.711" gradientUnits="userSpaceOnUse">
<stop stop-color="#F34545"/>
<stop offset="1" stop-color="#FFB4B4"/>
</linearGradient>
</defs>
</svg>
