<svg width="30" height="30" viewBox="0 0 30 30" fill="none" xmlns="http://www.w3.org/2000/svg">
<rect width="30" height="30" rx="6" fill="#5458EA"/>
<path fill-rule="evenodd" clip-rule="evenodd" d="M9.47458 5.71649C11.1625 4.59119 13.3797 5.62284 13.7085 7.51759H17C18.5188 7.51759 19.75 8.74881 19.75 10.2676C19.75 10.6818 19.4142 11.0176 19 11.0176C18.5858 11.0176 18.25 10.6818 18.25 10.2676C18.25 9.57723 17.6904 9.01759 17 9.01759H13.75V21.5176H17C17.6904 21.5176 18.25 20.9579 18.25 20.2676C18.25 19.8534 18.5858 19.5176 19 19.5176C19.4142 19.5176 19.75 19.8534 19.75 20.2676C19.75 21.7864 18.5188 23.0176 17 23.0176H13.7085C13.3797 24.9123 11.1625 25.944 9.47458 24.8187L7.47457 23.4854C6.70953 22.9753 6.25 22.1167 6.25 21.1972V9.33796C6.25 8.41849 6.70953 7.55985 7.47457 7.04982L9.47458 5.71649ZM20.4697 17.5303C20.1768 17.2374 20.1768 16.7626 20.4697 16.4697L21.1893 15.75L16 15.75C15.5858 15.75 15.25 15.4142 15.25 15C15.25 14.5858 15.5858 14.25 16 14.25L21.1893 14.25L20.4697 13.5303C20.1768 13.2374 20.1768 12.7626 20.4697 12.4697C20.7626 12.1768 21.2374 12.1768 21.5303 12.4697L22.8232 13.7626C23.5066 14.446 23.5066 15.554 22.8232 16.2374L21.5303 17.5303C21.2374 17.8232 20.7626 17.8232 20.4697 17.5303Z" fill="white"/>
</svg>
