<svg width="30" height="30" viewBox="0 0 30 30" fill="none" xmlns="http://www.w3.org/2000/svg">
<rect width="30" height="30" rx="6" fill="#5458EA"/>
<path fill-rule="evenodd" clip-rule="evenodd" d="M10.2312 5H19.7687C21.5861 5 23.2203 6.24475 23.8953 8.14305L24.6533 10.2749C24.8827 10.9202 25.0413 11.6107 24.8739 12.2749C24.4776 13.8478 23.1917 15 21.6666 15C19.8257 15 18.3333 13.3211 18.3333 11.25C18.3333 13.3211 16.8409 15 15 15C13.159 15 11.6666 13.3211 11.6666 11.25C11.6666 13.3211 10.1742 15 8.3333 15C6.8082 15 5.52232 13.8478 5.12598 12.2749C4.95862 11.6107 5.11723 10.9202 5.34667 10.2749L6.10466 8.14305C6.7796 6.24476 8.41387 5 10.2312 5ZM7 16.3002V20.9997C7 23.2088 8.79086 24.9997 11 24.9997H19C21.2091 24.9997 23 23.2088 23 20.9997V16.3003C22.5812 16.4295 22.1348 16.4997 21.6667 16.4997C20.3296 16.4997 19.1772 15.937 18.3334 15.0557C17.4896 15.937 16.3372 16.4997 15.0001 16.4997C13.6629 16.4997 12.5106 15.937 11.6667 15.0557C10.8229 15.937 9.67053 16.4997 8.3334 16.4997C7.86527 16.4997 7.41887 16.4295 7 16.3002ZM18.6532 19.6312C18.8566 19.992 18.729 20.4495 18.3682 20.6529C17.1531 21.338 16.1064 21.7474 15.0027 21.7496C13.8977 21.7517 12.849 21.3455 11.629 20.6515C11.269 20.4466 11.1432 19.9887 11.348 19.6287C11.5528 19.2687 12.0107 19.1429 12.3707 19.3477C13.5069 19.994 14.282 20.2509 14.9998 20.2496C15.719 20.2482 16.4943 19.9874 17.6315 19.3462C17.9924 19.1428 18.4498 19.2704 18.6532 19.6312Z" fill="white"/>
</svg>
