<svg width="97" height="112" viewBox="0 0 97 112" fill="none" xmlns="http://www.w3.org/2000/svg">
<g opacity="0.6" filter="url(#filter0_f_196_16138)">
<rect x="16.5" y="16" width="64" height="80" rx="20" fill="#5458EA"/>
<rect x="17.5" y="17" width="62" height="78" rx="19" stroke="url(#paint0_linear_196_16138)" stroke-width="2"/>
</g>
<rect x="7.5" y="9" width="80" height="80" rx="20" fill="#5458EA"/>
<path fill-rule="evenodd" clip-rule="evenodd" d="M41 38.5C41 34.9101 43.9101 32 47.5 32C51.0899 32 54 34.9101 54 38.5V41H41V38.5ZM38 41.1404V38.5C38 33.2533 42.2533 29 47.5 29C52.7467 29 57 33.2533 57 38.5V41.1404C60.7013 41.8425 63.5 45.0944 63.5 49V61C63.5 65.4183 59.9183 69 55.5 69H39.5C35.0817 69 31.5 65.4183 31.5 61V49C31.5 45.0944 34.2987 41.8425 38 41.1404ZM47.5 51.5C48.3284 51.5 49 52.1716 49 53V57C49 57.8284 48.3284 58.5 47.5 58.5C46.6716 58.5 46 57.8284 46 57V53C46 52.1716 46.6716 51.5 47.5 51.5Z" fill="white" fill-opacity="0.5"/>
<defs>
<filter id="filter0_f_196_16138" x="0.5" y="0" width="96" height="112" filterUnits="userSpaceOnUse" color-interpolation-filters="sRGB">
<feFlood flood-opacity="0" result="BackgroundImageFix"/>
<feBlend mode="normal" in="SourceGraphic" in2="BackgroundImageFix" result="shape"/>
<feGaussianBlur stdDeviation="8" result="effect1_foregroundBlur_196_16138"/>
</filter>
<linearGradient id="paint0_linear_196_16138" x1="16.5" y1="16" x2="95.1441" y2="75.8274" gradientUnits="userSpaceOnUse">
<stop stop-color="white" stop-opacity="0.7"/>
<stop offset="1" stop-color="white" stop-opacity="0"/>
</linearGradient>
</defs>
</svg>
