<svg width="97" height="113" viewBox="0 0 97 113" fill="none" xmlns="http://www.w3.org/2000/svg">
<g opacity="0.6" filter="url(#filter0_f_196_15621)">
<rect x="16.5" y="16.5" width="64" height="80" rx="20" fill="#5458EA"/>
<rect x="17.5" y="17.5" width="62" height="78" rx="19" stroke="url(#paint0_linear_196_15621)" stroke-width="2"/>
</g>
<rect x="7.5" y="9.5" width="80" height="80" rx="20" fill="#5458EA"/>
<path d="M65.5 63.5V60.2081C65.5 58.5725 64.5042 57.1017 62.9856 56.4942L58.9173 54.8669C56.9857 54.0943 54.7844 54.9312 53.854 56.792L53.5 57.5C53.5 57.5 48.5 56.5 44.5 52.5C40.5 48.5 39.5 43.5 39.5 43.5L40.208 43.146C42.0688 42.2156 42.9057 40.0143 42.1331 38.0827L40.5058 34.0144C39.8983 32.4958 38.4275 31.5 36.7919 31.5H33.5C31.2909 31.5 29.5 33.2909 29.5 35.5C29.5 53.1731 43.8269 67.5 61.5 67.5C63.7091 67.5 65.5 65.7091 65.5 63.5Z" fill="white" fill-opacity="0.5" stroke="white" stroke-opacity="0.7" stroke-linejoin="round"/>
<defs>
<filter id="filter0_f_196_15621" x="0.5" y="0.5" width="96" height="112" filterUnits="userSpaceOnUse" color-interpolation-filters="sRGB">
<feFlood flood-opacity="0" result="BackgroundImageFix"/>
<feBlend mode="normal" in="SourceGraphic" in2="BackgroundImageFix" result="shape"/>
<feGaussianBlur stdDeviation="8" result="effect1_foregroundBlur_196_15621"/>
</filter>
<linearGradient id="paint0_linear_196_15621" x1="16.5" y1="16.5" x2="95.1441" y2="76.3274" gradientUnits="userSpaceOnUse">
<stop stop-color="white" stop-opacity="0.7"/>
<stop offset="1" stop-color="white" stop-opacity="0"/>
</linearGradient>
</defs>
</svg>
