<svg width="20" height="18" viewBox="0 0 20 18" fill="none" xmlns="http://www.w3.org/2000/svg">
<path fill-rule="evenodd" clip-rule="evenodd" d="M18.5303 16.4697C18.8232 16.7626 18.8232 17.2374 18.5303 17.5303C18.2374 17.8232 17.7626 17.8232 17.4697 17.5303L1.46967 1.53033C1.17678 1.23744 1.17678 0.762564 1.46967 0.469669C1.76256 0.176777 2.23744 0.176777 2.53033 0.469669L5.3571 3.29644C6.76634 2.52913 8.33996 2 10 2C13.8155 2 17.1745 4.79533 19.1303 6.8531C20.2899 8.07317 20.2899 9.92683 19.1303 11.1469C18.3005 12.02 17.218 13.0259 15.9553 13.8947L18.5303 16.4697ZM12.5846 10.524C12.8486 10.0773 13 9.55636 13 9C13 7.34315 11.6569 6 10 6C9.44364 6 8.92266 6.15145 8.47602 6.41536L12.5846 10.524ZM10 16C6.18448 16 2.82549 13.2047 0.869705 11.1469C-0.289902 9.92683 -0.289902 8.07317 0.869705 6.8531C1.30977 6.39009 1.82087 5.88974 2.39223 5.39229L12.5873 15.5874C11.7578 15.8474 10.8914 16 10 16Z" fill="#494949"/>
</svg>
