<svg width="24" height="25" viewBox="0 0 24 25" fill="none" xmlns="http://www.w3.org/2000/svg">
<path fill-rule="evenodd" clip-rule="evenodd" d="M2.75 6.5C2.75 4.70507 4.20507 3.25 6 3.25H14C14.4142 3.25 14.75 2.91421 14.75 2.5C14.75 2.08579 14.4142 1.75 14 1.75H6C3.37665 1.75 1.25 3.87665 1.25 6.5V18.5C1.25 21.1234 3.37665 23.25 6 23.25H18C20.6234 23.25 22.75 21.1234 22.75 18.5V10.5C22.75 10.0858 22.4142 9.75 22 9.75C21.5858 9.75 21.25 10.0858 21.25 10.5V14.0091C21.2049 13.973 21.158 13.9387 21.1094 13.9063L18.7285 12.319C17.142 11.2613 15.0295 11.4705 13.6812 12.8188L10.3188 16.1812C8.9705 17.5295 6.85802 17.7387 5.27153 16.681L2.75 15V6.5ZM19.75 2.5C19.75 2.08579 19.4142 1.75 19 1.75C18.5858 1.75 18.25 2.08579 18.25 2.5V4.75H16C15.5858 4.75 15.25 5.08579 15.25 5.5C15.25 5.91421 15.5858 6.25 16 6.25H18.25V8.5C18.25 8.91421 18.5858 9.25 19 9.25C19.4142 9.25 19.75 8.91421 19.75 8.5V6.25H22C22.4142 6.25 22.75 5.91421 22.75 5.5C22.75 5.08579 22.4142 4.75 22 4.75H19.75V2.5ZM8.5 11.5C9.88071 11.5 11 10.3807 11 9C11 7.61929 9.88071 6.5 8.5 6.5C7.11929 6.5 6 7.61929 6 9C6 10.3807 7.11929 11.5 8.5 11.5Z" fill="#5458EA"/>
</svg>
