<svg width="16" height="21" viewBox="0 0 16 21" fill="none" xmlns="http://www.w3.org/2000/svg">
<path fill-rule="evenodd" clip-rule="evenodd" d="M5.40627 1.3906C5.7772 0.834202 6.40166 0.5 7.07037 0.5H8.92963C9.59834 0.5 10.2228 0.834202 10.5937 1.3906L11.5 2.75H15.25C15.6642 2.75 16 3.08579 16 3.5C16 3.91421 15.6642 4.25 15.25 4.25H0.75C0.335786 4.25 0 3.91421 0 3.5C0 3.08579 0.335786 2.75 0.75 2.75H4.5L5.40627 1.3906ZM11 20.5H5C2.79086 20.5 1 18.7091 1 16.5V5.5H15V16.5C15 18.7091 13.2091 20.5 11 20.5ZM6 8.75C6.41421 8.75 6.75 9.08579 6.75 9.5V16.5C6.75 16.9142 6.41421 17.25 6 17.25C5.58579 17.25 5.25 16.9142 5.25 16.5L5.25 9.5C5.25 9.08579 5.58579 8.75 6 8.75ZM10 8.75C10.4142 8.75 10.75 9.08579 10.75 9.5V16.5C10.75 16.9142 10.4142 17.25 10 17.25C9.58579 17.25 9.25 16.9142 9.25 16.5V9.5C9.25 9.08579 9.58579 8.75 10 8.75Z" fill="#F34545"/>
</svg>
