<svg width="87" height="110" viewBox="0 0 87 110" fill="none" xmlns="http://www.w3.org/2000/svg">
<path fill-rule="evenodd" clip-rule="evenodd" d="M29.4505 5.65758C31.4597 2.64376 34.8422 0.833496 38.4643 0.833496H48.5353C52.1575 0.833496 55.54 2.64376 57.5492 5.65758L62.4582 13.021H82.7707C85.0143 13.021 86.8332 14.8398 86.8332 17.0835C86.8332 19.3272 85.0143 21.146 82.7707 21.146H4.229C1.98535 21.146 0.166504 19.3272 0.166504 17.0835C0.166504 14.8398 1.98535 13.021 4.229 13.021H24.5415L29.4505 5.65758ZM59.7498 109.167H27.2498C15.2837 109.167 5.58317 99.4663 5.58317 87.5002V27.9168H81.4165V87.5002C81.4165 99.4663 71.716 109.167 59.7498 109.167ZM32.6665 45.521C34.9102 45.521 36.729 47.3398 36.729 49.5835V87.5002C36.729 89.7438 34.9102 91.5627 32.6665 91.5627C30.4229 91.5627 28.604 89.7438 28.604 87.5002L28.604 49.5835C28.604 47.3398 30.4228 45.521 32.6665 45.521ZM54.3332 45.521C56.5768 45.521 58.3957 47.3398 58.3957 49.5835V87.5002C58.3957 89.7438 56.5768 91.5627 54.3332 91.5627C52.0895 91.5627 50.2707 89.7438 50.2707 87.5002V49.5835C50.2707 47.3398 52.0895 45.521 54.3332 45.521Z" fill="url(#paint0_linear_1861_6434)"/>
<defs>
<linearGradient id="paint0_linear_1861_6434" x1="43.4998" y1="0.833496" x2="43.4998" y2="109.167" gradientUnits="userSpaceOnUse">
<stop stop-color="#F34545"/>
<stop offset="1" stop-color="#FFBABA"/>
</linearGradient>
</defs>
</svg>
